<?xml version="1.0" encoding="UTF-8" standalone="no"?>
<svg
   height="16px"
   viewBox="0 0 16 16"
   width="16px"
   version="1.1"
   id="svg10"
   sodipodi:docname="folder-remote-discon-symbolic.svg"
   inkscape:version="1.2.2 (b0a8486541, 2022-12-01)"
   xmlns:inkscape="http://www.inkscape.org/namespaces/inkscape"
   xmlns:sodipodi="http://sodipodi.sourceforge.net/DTD/sodipodi-0.dtd"
   xmlns="http://www.w3.org/2000/svg"
   xmlns:svg="http://www.w3.org/2000/svg">
  <defs
     id="defs14" />
  <sodipodi:namedview
     id="namedview12"
     pagecolor="#ffffff"
     bordercolor="#000000"
     borderopacity="0.25"
     inkscape:showpageshadow="2"
     inkscape:pageopacity="0.0"
     inkscape:pagecheckerboard="0"
     inkscape:deskcolor="#d1d1d1"
     showgrid="false"
     inkscape:zoom="47.9375"
     inkscape:cx="8.0625815"
     inkscape:cy="8.125163"
     inkscape:window-width="1413"
     inkscape:window-height="991"
     inkscape:window-x="26"
     inkscape:window-y="23"
     inkscape:window-maximized="0"
     inkscape:current-layer="svg10" />
  <g
     fill="#2e3436"
     id="g8">
    <path
       d="m 7.996094 12 c -0.703125 0 -1.355469 0.371094 -1.714844 0.972656 h -3.285156 c -0.554688 0 -1 0.449219 -1 1 c 0 0.550782 0.445312 1 1 1 h 3.246094 c 0.351562 0.640625 1.023437 1.035156 1.753906 1.039063 c 0.726562 -0.003907 1.398437 -0.398438 1.75 -1.039063 h 3.261718 c 0.550782 0 1 -0.449218 1 -1 c 0 -0.550781 -0.449218 -1 -1 -1 h -3.292968 c -0.363282 -0.601562 -1.015625 -0.972656 -1.71875 -0.972656 z m 0 1 c 0.554687 0 1.003906 0.449219 1.003906 1.007812 c 0 0.554688 -0.449219 1.003907 -1.003906 1.003907 c -0.558594 0 -1.007813 -0.449219 -1.007813 -1.003907 c 0 -0.558593 0.449219 -1.007812 1.007813 -1.007812 z m 0 0"
       id="path2" />
    <path
       d="m 6.992188 10 h 2.007812 v 3 h -2.007812 z m 0 0"
       id="path4" />
    <path
       d="m 4 0 c -1.644531 0 -3 1.355469 -3 3 v 5.015625 c 0 1.644531 1.355469 3 3 3 h 8 c 1.644531 0 3 -1.355469 3 -3 v -3.015625 c 0 -1.644531 -1.355469 -3 -3 -3 h -2.585938 l -1.707031 -1.707031 c -0.1875 -0.1875 -0.441406 -0.292969 -0.707031 -0.292969 z m 0 2 h 2.585938 l 1 1 h -4.585938 c 0 -0.5625 0.4375 -1 1 -1 z m -1 2 h 9 c 0.5625 0 1 0.4375 1 1 v 3.015625 c 0 0.5625 -0.4375 1 -1 1 h -8 c -0.5625 0 -1 -0.4375 -1 -1 z m 0 0"
       id="path6" />
  </g>
  <path
     d="M 11.421738,7.112024 C 10.4608,7.17843 9.5584558,7.592493 8.8787688,8.27218 c -1.5625,1.5625 -1.5625,4.09375 0,5.65625 1.5625002,1.5625 4.0937502,1.5625 5.6562502,0 1.5625,-1.5625 1.5625,-4.09375 0,-5.65625 C 13.714706,7.451867 12.577988,7.026086 11.421738,7.112024 Z m -1.128906,1.570312 c 0.253906,0 0.511718,0.101563 0.707031,0.296875 l 0.707031,0.707032 0.707031,-0.707032 c 0.390625,-0.390625 1.023438,-0.390625 1.414063,0 0.390625,0.390625 0.390625,1.023438 0,1.414063 l -0.707032,0.707031 0.707032,0.707031 c 0.390625,0.390625 0.390625,1.023438 0,1.414063 -0.390625,0.390625 -1.023438,0.390625 -1.414063,0 l -0.707031,-0.707032 -0.707031,0.707032 c -0.390625,0.390625 -1.0234382,0.390625 -1.4140632,0 -0.390625,-0.390625 -0.390625,-1.023438 0,-1.414063 L 10.292832,11.100305 9.5857998,10.393274 c -0.390625,-0.390625 -0.390625,-1.023438 0,-1.414063 0.195313,-0.195312 0.4531252,-0.296875 0.7070322,-0.296875 z m 0,0"
     class="error"
     fill="#e01b24"
     id="path393" />
</svg>
